<svg width="18" height="18" viewBox="0 0 18 18" fill="none" xmlns="http://www.w3.org/2000/svg">
<path d="M2.59833 16.1137C3.69667 17.3337 5.465 17.3337 9 17.3337C12.5358 17.3337 14.3033 17.3337 15.4017 16.1128C16.5 14.8937 16.5 12.9287 16.5 9.00033C16.5 5.07199 16.5 3.10783 15.4017 1.88699C14.3033 0.666992 12.535 0.666992 9 0.666992C5.46417 0.666992 3.69667 0.666992 2.59833 1.88699C1.5 3.10866 1.5 5.07199 1.5 9.00033C1.5 12.9287 1.5 14.8937 2.59833 16.1137Z" stroke="#060D38" stroke-width="1.25"/>
<path d="M4.83203 5.66667C4.83203 5.27917 4.83203 5.08583 4.87453 4.92667C4.93136 4.71489 5.04289 4.52179 5.19794 4.36674C5.35298 4.21169 5.54609 4.10016 5.75786 4.04333C5.9187 4 6.11203 4 6.4987 4H11.4987C11.8862 4 12.0795 4 12.2387 4.0425C12.4505 4.09933 12.6436 4.21086 12.7986 4.36591C12.9537 4.52095 13.0652 4.71406 13.122 4.92583C13.1654 5.08667 13.1654 5.28 13.1654 5.66667C13.1654 6.05333 13.1654 6.2475 13.1229 6.40667C13.066 6.61844 12.9545 6.81155 12.7995 6.96659C12.6444 7.12164 12.4513 7.23317 12.2395 7.29C12.0795 7.33333 11.8854 7.33333 11.4987 7.33333H6.4987C6.1112 7.33333 5.91786 7.33333 5.7587 7.29083C5.54692 7.23401 5.35382 7.12247 5.19877 6.96743C5.04373 6.81238 4.93219 6.61928 4.87536 6.4075C4.83203 6.24667 4.83203 6.05333 4.83203 5.66667Z" stroke="#060D38" stroke-width="1.25"/>
<path d="M5.66536 10.6667C6.1256 10.6667 6.4987 10.2936 6.4987 9.83333C6.4987 9.3731 6.1256 9 5.66536 9C5.20513 9 4.83203 9.3731 4.83203 9.83333C4.83203 10.2936 5.20513 10.6667 5.66536 10.6667Z" fill="#060D38"/>
<path d="M5.66536 14.0007C6.1256 14.0007 6.4987 13.6276 6.4987 13.1673C6.4987 12.7071 6.1256 12.334 5.66536 12.334C5.20513 12.334 4.83203 12.7071 4.83203 13.1673C4.83203 13.6276 5.20513 14.0007 5.66536 14.0007Z" fill="#060D38"/>
<path d="M9.0013 10.6667C9.46154 10.6667 9.83464 10.2936 9.83464 9.83333C9.83464 9.3731 9.46154 9 9.0013 9C8.54106 9 8.16797 9.3731 8.16797 9.83333C8.16797 10.2936 8.54106 10.6667 9.0013 10.6667Z" fill="#060D38"/>
<path d="M9.0013 14.0007C9.46154 14.0007 9.83464 13.6276 9.83464 13.1673C9.83464 12.7071 9.46154 12.334 9.0013 12.334C8.54106 12.334 8.16797 12.7071 8.16797 13.1673C8.16797 13.6276 8.54106 14.0007 9.0013 14.0007Z" fill="#060D38"/>
<path d="M12.3333 10.6667C12.7936 10.6667 13.1667 10.2936 13.1667 9.83333C13.1667 9.3731 12.7936 9 12.3333 9C11.8731 9 11.5 9.3731 11.5 9.83333C11.5 10.2936 11.8731 10.6667 12.3333 10.6667Z" fill="#060D38"/>
<path d="M12.3333 14.0007C12.7936 14.0007 13.1667 13.6276 13.1667 13.1673C13.1667 12.7071 12.7936 12.334 12.3333 12.334C11.8731 12.334 11.5 12.7071 11.5 13.1673C11.5 13.6276 11.8731 14.0007 12.3333 14.0007Z" fill="#060D38"/>
</svg>
