<svg width="19" height="20" viewBox="0 0 19 20" fill="none" xmlns="http://www.w3.org/2000/svg">
<path d="M15.5 0C16.2956 0 17.0587 0.316071 17.6213 0.87868C18.1839 1.44129 18.5 2.20435 18.5 3V17C18.5 17.7956 18.1839 18.5587 17.6213 19.1213C17.0587 19.6839 16.2956 20 15.5 20H3.5C2.70435 20 1.94129 19.6839 1.37868 19.1213C0.816071 18.5587 0.5 17.7956 0.5 17V3C0.5 2.20435 0.816071 1.44129 1.37868 0.87868C1.94129 0.316071 2.70435 0 3.5 0H15.5ZM5.5 15C5.23478 15 4.98043 15.1054 4.79289 15.2929C4.60536 15.4804 4.5 15.7348 4.5 16L4.507 16.127C4.5371 16.3801 4.66271 16.6121 4.85817 16.7757C5.05362 16.9393 5.30416 17.0221 5.55861 17.0072C5.81305 16.9922 6.05218 16.8807 6.22715 16.6954C6.40212 16.51 6.49972 16.2649 6.5 16.01L6.493 15.883C6.46434 15.6397 6.34741 15.4155 6.16437 15.2527C5.98134 15.09 5.74493 15 5.5 15ZM9.5 15C9.23478 15 8.98043 15.1054 8.79289 15.2929C8.60536 15.4804 8.5 15.7348 8.5 16L8.507 16.127C8.5371 16.3801 8.66271 16.6121 8.85817 16.7757C9.05362 16.9393 9.30416 17.0221 9.55861 17.0072C9.81305 16.9922 10.0522 16.8807 10.2272 16.6954C10.4021 16.51 10.4997 16.2649 10.5 16.01L10.493 15.883C10.4643 15.6397 10.3474 15.4155 10.1644 15.2527C9.98134 15.09 9.74493 15 9.5 15ZM13.5 15C13.2348 15 12.9804 15.1054 12.7929 15.2929C12.6054 15.4804 12.5 15.7348 12.5 16L12.507 16.127C12.5371 16.3801 12.6627 16.6121 12.8582 16.7757C13.0536 16.9393 13.3042 17.0221 13.5586 17.0072C13.813 16.9922 14.0522 16.8807 14.2272 16.6954C14.4021 16.51 14.4997 16.2649 14.5 16.01L14.493 15.883C14.4643 15.6397 14.3474 15.4155 14.1644 15.2527C13.9813 15.09 13.7449 15 13.5 15ZM5.5 11C5.23478 11 4.98043 11.1054 4.79289 11.2929C4.60536 11.4804 4.5 11.7348 4.5 12L4.507 12.127C4.5371 12.3801 4.66271 12.6121 4.85817 12.7757C5.05362 12.9393 5.30416 13.0221 5.55861 13.0072C5.81305 12.9922 6.05218 12.8807 6.22715 12.6954C6.40212 12.51 6.49972 12.2649 6.5 12.01L6.493 11.883C6.46434 11.6397 6.34741 11.4155 6.16437 11.2527C5.98134 11.09 5.74493 11 5.5 11ZM9.5 11C9.23478 11 8.98043 11.1054 8.79289 11.2929C8.60536 11.4804 8.5 11.7348 8.5 12L8.507 12.127C8.5371 12.3801 8.66271 12.6121 8.85817 12.7757C9.05362 12.9393 9.30416 13.0221 9.55861 13.0072C9.81305 12.9922 10.0522 12.8807 10.2272 12.6954C10.4021 12.51 10.4997 12.2649 10.5 12.01L10.493 11.883C10.4643 11.6397 10.3474 11.4155 10.1644 11.2527C9.98134 11.09 9.74493 11 9.5 11ZM13.5 11C13.2348 11 12.9804 11.1054 12.7929 11.2929C12.6054 11.4804 12.5 11.7348 12.5 12L12.507 12.127C12.5371 12.3801 12.6627 12.6121 12.8582 12.7757C13.0536 12.9393 13.3042 13.0221 13.5586 13.0072C13.813 12.9922 14.0522 12.8807 14.2272 12.6954C14.4021 12.51 14.4997 12.2649 14.5 12.01L14.493 11.883C14.4643 11.6397 14.3474 11.4155 14.1644 11.2527C13.9813 11.09 13.7449 11 13.5 11ZM12.5 4H6.5C5.96957 4 5.46086 4.21071 5.08579 4.58579C4.71071 4.96086 4.5 5.46957 4.5 6V7C4.5 7.53043 4.71071 8.03914 5.08579 8.41421C5.46086 8.78929 5.96957 9 6.5 9H12.5C13.0304 9 13.5391 8.78929 13.9142 8.41421C14.2893 8.03914 14.5 7.53043 14.5 7V6C14.5 5.46957 14.2893 4.96086 13.9142 4.58579C13.5391 4.21071 13.0304 4 12.5 4Z" fill="white"/>
</svg>
