<svg width="20" height="20" viewBox="0 0 20 20" fill="none" xmlns="http://www.w3.org/2000/svg">
<path d="M3.59833 17.1137C4.69667 18.3337 6.465 18.3337 10 18.3337C13.5358 18.3337 15.3033 18.3337 16.4017 17.1128C17.5 15.8937 17.5 13.9287 17.5 10.0003C17.5 6.07199 17.5 4.10783 16.4017 2.88699C15.3033 1.66699 13.535 1.66699 10 1.66699C6.46417 1.66699 4.69667 1.66699 3.59833 2.88699C2.5 4.10866 2.5 6.07199 2.5 10.0003C2.5 13.9287 2.5 15.8937 3.59833 17.1137Z" stroke="#5932EA" stroke-width="1.25"/>
<path d="M5.83203 6.66667C5.83203 6.27917 5.83203 6.08583 5.87453 5.92667C5.93136 5.71489 6.04289 5.52179 6.19794 5.36674C6.35298 5.21169 6.54609 5.10016 6.75786 5.04333C6.9187 5 7.11203 5 7.4987 5H12.4987C12.8862 5 13.0795 5 13.2387 5.0425C13.4505 5.09933 13.6436 5.21086 13.7986 5.36591C13.9537 5.52095 14.0652 5.71406 14.122 5.92583C14.1654 6.08667 14.1654 6.28 14.1654 6.66667C14.1654 7.05333 14.1654 7.2475 14.1229 7.40667C14.066 7.61844 13.9545 7.81155 13.7995 7.96659C13.6444 8.12164 13.4513 8.23317 13.2395 8.29C13.0795 8.33333 12.8854 8.33333 12.4987 8.33333H7.4987C7.1112 8.33333 6.91786 8.33333 6.7587 8.29083C6.54692 8.23401 6.35382 8.12247 6.19877 7.96743C6.04373 7.81238 5.93219 7.61928 5.87536 7.4075C5.83203 7.24667 5.83203 7.05333 5.83203 6.66667Z" stroke="#5932EA" stroke-width="1.25"/>
<path d="M6.66536 11.6667C7.1256 11.6667 7.4987 11.2936 7.4987 10.8333C7.4987 10.3731 7.1256 10 6.66536 10C6.20513 10 5.83203 10.3731 5.83203 10.8333C5.83203 11.2936 6.20513 11.6667 6.66536 11.6667Z" fill="#5932EA"/>
<path d="M6.66536 15.0007C7.1256 15.0007 7.4987 14.6276 7.4987 14.1673C7.4987 13.7071 7.1256 13.334 6.66536 13.334C6.20513 13.334 5.83203 13.7071 5.83203 14.1673C5.83203 14.6276 6.20513 15.0007 6.66536 15.0007Z" fill="#5932EA"/>
<path d="M10.0013 11.6667C10.4615 11.6667 10.8346 11.2936 10.8346 10.8333C10.8346 10.3731 10.4615 10 10.0013 10C9.54106 10 9.16797 10.3731 9.16797 10.8333C9.16797 11.2936 9.54106 11.6667 10.0013 11.6667Z" fill="#5932EA"/>
<path d="M10.0013 15.0007C10.4615 15.0007 10.8346 14.6276 10.8346 14.1673C10.8346 13.7071 10.4615 13.334 10.0013 13.334C9.54106 13.334 9.16797 13.7071 9.16797 14.1673C9.16797 14.6276 9.54106 15.0007 10.0013 15.0007Z" fill="#5932EA"/>
<path d="M13.3333 11.6667C13.7936 11.6667 14.1667 11.2936 14.1667 10.8333C14.1667 10.3731 13.7936 10 13.3333 10C12.8731 10 12.5 10.3731 12.5 10.8333C12.5 11.2936 12.8731 11.6667 13.3333 11.6667Z" fill="#5932EA"/>
<path d="M13.3333 15.0007C13.7936 15.0007 14.1667 14.6276 14.1667 14.1673C14.1667 13.7071 13.7936 13.334 13.3333 13.334C12.8731 13.334 12.5 13.7071 12.5 14.1673C12.5 14.6276 12.8731 15.0007 13.3333 15.0007Z" fill="#5932EA"/>
</svg>
