<svg width="33" height="32" viewBox="0 0 33 32" fill="none" xmlns="http://www.w3.org/2000/svg">
<path d="M26.2567 27.9999H17.0567C16.7732 28.0235 16.4878 27.9902 16.2174 27.9019C15.947 27.8136 15.697 27.6721 15.4821 27.4857C15.2671 27.2994 15.0917 27.0719 14.9659 26.8168C14.8402 26.5616 14.7668 26.2838 14.75 25.9999V20.6665C14.7668 20.3826 14.8402 20.1048 14.9659 19.8497C15.0917 19.5945 15.2671 19.367 15.4821 19.1807C15.697 18.9943 15.947 18.8528 16.2174 18.7646C16.4878 18.6763 16.7732 18.6429 17.0567 18.6665H26.2567C26.5395 18.6429 26.8241 18.6763 27.0937 18.7648C27.3634 18.8532 27.6125 18.9949 27.8264 19.1814C28.0403 19.3679 28.2145 19.5955 28.3388 19.8506C28.4631 20.1057 28.5349 20.3832 28.55 20.6665V25.9999C28.4959 26.5632 28.2281 27.0845 27.8015 27.4565C27.375 27.8285 26.8222 28.0229 26.2567 27.9999Z" stroke="#5932EA" stroke-width="1.5" stroke-linecap="round" stroke-linejoin="round"/>
<path d="M23.0833 16.0002H20.2167C20.0941 15.9869 19.9702 15.9999 19.8531 16.0383C19.7359 16.0767 19.6284 16.1396 19.5375 16.2229C19.4467 16.3062 19.3746 16.4079 19.3262 16.5212C19.2777 16.6346 19.254 16.757 19.2567 16.8802V18.6668H24.0433V16.8802C24.0459 16.757 24.0223 16.6346 23.9738 16.5212C23.9254 16.4079 23.8533 16.3062 23.7625 16.2229C23.6716 16.1396 23.5641 16.0767 23.4469 16.0383C23.3298 15.9999 23.2059 15.9869 23.0833 16.0002Z" stroke="#5932EA" stroke-width="1.5" stroke-linecap="round" stroke-linejoin="round"/>
<path d="M14.75 23.0532H28.55" stroke="#5932EA" stroke-width="1.5" stroke-linecap="round" stroke-linejoin="round"/>
<path d="M13.9367 11.28C15.947 11.28 17.5767 9.65032 17.5767 7.64C17.5767 5.62968 15.947 4 13.9367 4C11.9263 4 10.2967 5.62968 10.2967 7.64C10.2967 9.65032 11.9263 11.28 13.9367 11.28Z" stroke="#5932EA" stroke-width="1.5" stroke-linecap="round" stroke-linejoin="round"/>
<path d="M4.54999 24.5998V23.3998C4.54999 20.9244 5.53332 18.5505 7.28366 16.8001C9.034 15.0498 11.408 14.0665 13.8833 14.0665H14.0033C14.8651 14.0635 15.7228 14.1848 16.55 14.4265" stroke="#5932EA" stroke-width="1.5" stroke-linecap="round" stroke-linejoin="round"/>
</svg>
