<svg width="20" height="20" viewBox="0 0 20 20" fill="none" xmlns="http://www.w3.org/2000/svg">
<path d="M2.81875 3.38814C2.76788 3.43204 2.72705 3.48636 2.69901 3.54742C2.67097 3.60849 2.65639 3.67486 2.65625 3.74205V16.8749C2.65625 16.9992 2.70564 17.1184 2.79354 17.2063C2.88145 17.2942 3.00068 17.3436 3.125 17.3436C3.24932 17.3436 3.36855 17.2942 3.45646 17.2063C3.54436 17.1184 3.59375 16.9992 3.59375 16.8749V13.3421C5.7875 11.5616 7.64687 12.4827 9.79219 13.5428C11.0516 14.1678 12.4086 14.8381 13.8547 14.8381C14.9148 14.8381 16.0234 14.4788 17.1797 13.4772C17.2306 13.4336 17.2717 13.3796 17.3 13.3188C17.3283 13.2581 17.3432 13.1919 17.3438 13.1249V3.74205C17.3438 3.65214 17.3181 3.5641 17.2695 3.48843C17.221 3.41275 17.1517 3.35264 17.0699 3.31526C16.9881 3.27787 16.8973 3.26479 16.8083 3.27758C16.7193 3.29036 16.6359 3.32847 16.568 3.38736C14.3023 5.34986 12.4055 4.41002 10.2078 3.32174C8.02891 2.24283 5.54688 1.02799 2.81875 3.38814ZM16.4062 12.9038C14.2125 14.685 12.3531 13.7631 10.2078 12.7022C8.23438 11.7249 6.02266 10.6303 3.59375 12.1874V3.96236C5.7875 2.18111 7.64687 3.10299 9.79219 4.16236C11.7656 5.13971 13.9773 6.23424 16.4062 4.68033V12.9038Z" fill="#5932EA"/>
</svg>
