<svg width="16" height="16" viewBox="0 0 16 16" fill="none" xmlns="http://www.w3.org/2000/svg">
<path d="M0.81875 1.38814C0.767882 1.43204 0.727046 1.48636 0.699009 1.54742C0.670972 1.60849 0.656389 1.67486 0.65625 1.74205V14.8749C0.65625 14.9992 0.705636 15.1184 0.793544 15.2063C0.881451 15.2942 1.00068 15.3436 1.125 15.3436C1.24932 15.3436 1.36855 15.2942 1.45646 15.2063C1.54436 15.1184 1.59375 14.9992 1.59375 14.8749V11.3421C3.7875 9.56158 5.64687 10.4827 7.79219 11.5428C9.05156 12.1678 10.4086 12.8381 11.8547 12.8381C12.9148 12.8381 14.0234 12.4788 15.1797 11.4772C15.2306 11.4336 15.2717 11.3796 15.3 11.3188C15.3283 11.2581 15.3432 11.1919 15.3438 11.1249V1.74205C15.3438 1.65214 15.3181 1.5641 15.2695 1.48843C15.221 1.41275 15.1517 1.35264 15.0699 1.31526C14.9881 1.27787 14.8973 1.26479 14.8083 1.27758C14.7193 1.29036 14.6359 1.32847 14.568 1.38736C12.3023 3.34986 10.4055 2.41002 8.20781 1.32174C6.02891 0.242832 3.54688 -0.972012 0.81875 1.38814ZM14.4062 10.9038C12.2125 12.685 10.3531 11.7631 8.20781 10.7022C6.23438 9.72486 4.02266 8.63033 1.59375 10.1874V1.96236C3.7875 0.181113 5.64687 1.10299 7.79219 2.16236C9.76562 3.13971 11.9773 4.23424 14.4062 2.68033V10.9038Z" fill="white"/>
</svg>
