<svg width="16" height="16" viewBox="0 0 16 16" fill="none" xmlns="http://www.w3.org/2000/svg">
<path d="M8.93388 0H8.46484V7.53125H16.0006V7.0625C16.0006 5.18256 15.2638 3.41081 13.9258 2.07363C12.5878 0.736438 10.8149 0 8.93388 0ZM9.40291 6.59375V0.95525C12.4092 1.18369 14.8162 3.58928 15.0448 6.59375H9.40291Z" fill="#5932EA"/>
<path d="M7.53579 1.90625H7.06676C3.17013 1.90625 0 5.06047 0 8.9375C0 12.8243 3.17792 16 7.06676 16C10.9461 16 14.1023 12.8318 14.1023 8.9375V8.46875H7.53579V1.90625ZM6.59773 7.80584L3.09224 4.30247C4.05157 3.488 5.26583 2.96209 6.59773 2.86141V7.80584ZM0.938066 8.9375C0.938066 7.41978 1.49925 6.03013 2.42578 4.96222L6.40346 8.9375L2.41627 12.9223C1.49537 11.8503 0.938066 10.4578 0.938066 8.9375ZM7.06676 15.0625C5.54553 15.0625 4.15216 14.5055 3.07958 13.5852L7.26104 9.40594H13.1465C12.9074 12.5654 10.2719 15.0625 7.06676 15.0625Z" fill="#5932EA"/>
</svg>
