<svg width="33" height="32" viewBox="0 0 33 32" fill="none" xmlns="http://www.w3.org/2000/svg">
<path d="M26.18 27.9998H11.5133L13.6733 18.6665H28.34L26.18 27.9998Z" stroke="#5932EA" stroke-width="1.5" stroke-linecap="round" stroke-linejoin="round"/>
<path d="M19.9266 23.9998C20.2948 23.9998 20.5933 23.7014 20.5933 23.3332C20.5933 22.965 20.2948 22.6665 19.9266 22.6665C19.5584 22.6665 19.2599 22.965 19.2599 23.3332C19.2599 23.7014 19.5584 23.9998 19.9266 23.9998Z" fill="#5932EA" stroke="#5932EA" stroke-linecap="round" stroke-linejoin="round"/>
<path d="M12.9133 28H8.32666" stroke="#5932EA" stroke-width="1.5" stroke-linecap="round" stroke-linejoin="round"/>
<path d="M13.7266 11.28C15.7369 11.28 17.3666 9.65032 17.3666 7.64C17.3666 5.62968 15.7369 4 13.7266 4C11.7163 4 10.0866 5.62968 10.0866 7.64C10.0866 9.65032 11.7163 11.28 13.7266 11.28Z" stroke="#5932EA" stroke-width="1.5" stroke-linecap="round" stroke-linejoin="round"/>
<path d="M4.33997 24.6002V23.4002C4.33997 20.9249 5.3233 18.5509 7.07364 16.8006C8.82398 15.0502 11.1979 14.0669 13.6733 14.0669H13.7933C15.5869 14.0644 17.3425 14.5832 18.8466 15.5602" stroke="#5932EA" stroke-width="1.5" stroke-linecap="round" stroke-linejoin="round"/>
</svg>
