<svg width="21" height="20" viewBox="0 0 21 20" fill="none" xmlns="http://www.w3.org/2000/svg">
<path d="M16.3333 2.5C16.7754 2.5 17.1993 2.67559 17.5118 2.98816C17.8244 3.30072 18 3.72464 18 4.16667V15.8333C18 16.2754 17.8244 16.6993 17.5118 17.0118C17.1993 17.3244 16.7754 17.5 16.3333 17.5H4.66667C4.22464 17.5 3.80072 17.3244 3.48816 17.0118C3.17559 16.6993 3 16.2754 3 15.8333V4.16667C3 3.72464 3.17559 3.30072 3.48816 2.98816C3.80072 2.67559 4.22464 2.5 4.66667 2.5H16.3333ZM15.9167 15.4167V11C15.9167 10.2795 15.6304 9.5885 15.121 9.07903C14.6115 8.56955 13.9205 8.28333 13.2 8.28333C12.4917 8.28333 11.6667 8.71667 11.2667 9.36667V8.44167H8.94167V15.4167H11.2667V11.3083C11.2667 10.6667 11.7833 10.1417 12.425 10.1417C12.7344 10.1417 13.0312 10.2646 13.25 10.4834C13.4688 10.7022 13.5917 10.9989 13.5917 11.3083V15.4167H15.9167ZM6.23333 7.13333C6.60464 7.13333 6.96073 6.98583 7.22328 6.72328C7.48583 6.46073 7.63333 6.10464 7.63333 5.73333C7.63333 4.95833 7.00833 4.325 6.23333 4.325C5.85982 4.325 5.5016 4.47338 5.23749 4.73749C4.97338 5.0016 4.825 5.35982 4.825 5.73333C4.825 6.50833 5.45833 7.13333 6.23333 7.13333ZM7.39167 15.4167V8.44167H5.08333V15.4167H7.39167Z" fill="white"/>
</svg>
