<svg width="16" height="16" viewBox="0 0 16 16" fill="none" xmlns="http://www.w3.org/2000/svg">
<path d="M14.5417 6.53962H9.45474V1.45685C9.45474 0.652306 8.8056 0 8.00106 0C7.19651 0 6.54773 0.652306 6.54773 1.4572V6.54315H1.45826C0.653716 6.54315 -0.000351835 7.19545 5.72168e-07 8.00035C-0.000351835 8.40245 0.162108 8.77107 0.425356 9.03432C0.688957 9.29827 1.05264 9.46496 1.45439 9.46496H6.54773V14.5439C6.54773 14.9463 6.70737 15.3107 6.97097 15.5736C7.23457 15.8372 7.5972 16.0004 7.99965 16.0004C8.80384 16.0004 9.45474 15.348 9.45474 14.5439V9.46461H14.5417C15.3463 9.46461 15.9986 8.80666 15.9982 8.00211C15.9979 7.19792 15.3456 6.53962 14.5417 6.53962Z" fill="white"/>
</svg>
