<svg width="20" height="20" viewBox="0 0 20 20" fill="none" xmlns="http://www.w3.org/2000/svg">
<path fill-rule="evenodd" clip-rule="evenodd" d="M12.9095 10.0001C12.9095 10.7717 12.603 11.5117 12.0574 12.0572C11.5119 12.6028 10.7719 12.9093 10.0003 12.9093C9.2288 12.9093 8.48884 12.6028 7.94327 12.0572C7.3977 11.5117 7.0912 10.7717 7.0912 10.0001C7.0912 9.2286 7.3977 8.48864 7.94327 7.94307C8.48884 7.3975 9.2288 7.091 10.0003 7.091C10.7719 7.091 11.5119 7.3975 12.0574 7.94307C12.603 8.48864 12.9095 9.2286 12.9095 10.0001ZM11.8186 10.0001C11.8186 10.4824 11.627 10.9448 11.286 11.2858C10.945 11.6268 10.4826 11.8184 10.0003 11.8184C9.51813 11.8184 9.05566 11.6268 8.71468 11.2858C8.37369 10.9448 8.18213 10.4824 8.18213 10.0001C8.18213 9.51793 8.37369 9.05546 8.71468 8.71448C9.05566 8.3735 9.51813 8.18193 10.0003 8.18193C10.4826 8.18193 10.945 8.3735 11.286 8.71448C11.627 9.05546 11.8186 9.51793 11.8186 10.0001Z" fill="#060D38"/>
<path fill-rule="evenodd" clip-rule="evenodd" d="M10.0003 2C9.80543 2 9.61198 2.00727 9.4207 2.02037C8.86578 2.06037 8.4425 2.4691 8.32104 2.96875L8.06504 4.02331C8.05049 4.08004 7.99958 4.14841 7.9014 4.18332C7.72158 4.24849 7.5449 4.32203 7.37193 4.40368C7.27739 4.44732 7.19302 4.43568 7.14284 4.40514L6.21628 3.84076C5.777 3.57312 5.18935 3.5833 4.76898 3.94767C4.47588 4.20077 4.20169 4.47568 3.94787 4.76805C3.58423 5.18915 3.57332 5.7768 3.84096 6.21535L4.40533 7.14264C4.43588 7.19283 4.44824 7.27719 4.40388 7.37174C4.32242 7.54411 4.24897 7.72084 4.18424 7.9012C4.14787 7.99939 4.08024 8.05102 4.02351 8.06484L2.96894 8.32085C2.4693 8.4423 2.06056 8.86559 2.02056 9.42051C1.9929 9.80644 1.9929 10.1939 2.02056 10.5798C2.06056 11.1347 2.4693 11.558 2.96894 11.6795L4.02351 11.9355C4.08024 11.95 4.1486 12.0009 4.18351 12.0991C4.24897 12.2795 4.32242 12.4562 4.40388 12.6293C4.44752 12.7231 4.43588 12.8075 4.40533 12.8577L3.84096 13.7842C3.57332 14.2235 3.5835 14.8112 3.94787 15.2315C4.20097 15.5246 4.47588 15.7988 4.76825 16.0526C5.18935 16.4163 5.777 16.4272 6.21555 16.1595L7.14284 15.5952C7.19302 15.5646 7.27739 15.5523 7.37193 15.5966C7.5443 15.6781 7.72103 15.7515 7.9014 15.8163C7.99958 15.8526 8.05122 15.9203 8.06504 15.977L8.32104 17.0316C8.4425 17.5312 8.86578 17.9399 9.4207 17.9792C9.80663 18.0069 10.1941 18.0069 10.58 17.9792C11.1349 17.9399 11.5582 17.5312 11.6797 17.0316L11.9357 15.977C11.9502 15.9203 12.0011 15.8519 12.0993 15.817C12.2797 15.7515 12.4564 15.6781 12.6295 15.5966C12.7233 15.553 12.8077 15.5646 12.8579 15.5952L13.7844 16.1595C14.2237 16.4272 14.8113 16.417 15.2317 16.0526C15.5248 15.7995 15.799 15.5246 16.0528 15.2323C16.4165 14.8112 16.4274 14.2235 16.1597 13.785L15.5954 12.8577C15.5648 12.8075 15.5525 12.7231 15.5968 12.6286C15.6783 12.4562 15.7517 12.2795 15.8165 12.0991C15.8528 12.0009 15.9205 11.9493 15.9772 11.9355L17.0318 11.6795C17.5314 11.558 17.9401 11.1347 17.9794 10.5798C18.0071 10.1939 18.0071 9.80644 17.9794 9.42051C17.9401 8.86559 17.5314 8.4423 17.0318 8.32085L15.9772 8.06484C15.9205 8.0503 15.8521 7.99939 15.8172 7.9012C15.752 7.72139 15.6785 7.54471 15.5968 7.37174C15.5532 7.27719 15.5648 7.19283 15.5954 7.14264L16.1597 6.21608C16.4274 5.7768 16.4172 5.18915 16.0528 4.76878C15.7997 4.47568 15.5248 4.2015 15.2324 3.94767C14.8113 3.58403 14.2237 3.57312 13.7851 3.84076L12.8579 4.40514C12.8077 4.43568 12.7233 4.44805 12.6288 4.40368C12.4558 4.32229 12.2791 4.249 12.0993 4.18404C12.0011 4.14768 11.9495 4.08004 11.9357 4.02331L11.6797 2.96875C11.5582 2.4691 11.1349 2.06037 10.58 2.02037C10.3871 2.00667 10.1937 1.99987 10.0003 2ZM9.49852 3.10911C9.83264 3.08516 10.1681 3.08516 10.5022 3.10911C10.5422 3.11202 10.6004 3.14548 10.62 3.22548L10.8753 4.28004C10.9865 4.73678 11.3306 5.06551 11.7284 5.20952C11.8775 5.26334 12.0229 5.3237 12.1648 5.39061C12.3629 5.48646 12.5818 5.53171 12.8017 5.52232C13.0217 5.51293 13.2358 5.44919 13.4251 5.33679L14.3524 4.77242C14.423 4.72878 14.4877 4.74623 14.5183 4.77242C14.7713 4.99206 15.0084 5.22915 15.2281 5.48225C15.2543 5.51279 15.2717 5.5768 15.2281 5.64807L14.6637 6.57463C14.5512 6.76401 14.4874 6.97833 14.478 7.19841C14.4686 7.4185 14.5139 7.63747 14.6099 7.83575C14.6768 7.97757 14.7372 8.12303 14.7903 8.27212C14.9343 8.66994 15.2644 9.01395 15.7197 9.1245L16.7743 9.38123C16.855 9.40014 16.8885 9.45832 16.8914 9.49832C16.9153 9.83245 16.9153 10.1679 16.8914 10.502C16.8885 10.542 16.855 10.6002 16.775 10.6198L15.7205 10.8751C15.5071 10.9295 15.3106 11.0359 15.1484 11.1847C14.9862 11.3336 14.8634 11.5203 14.791 11.7282C14.7372 11.8764 14.6766 12.022 14.6092 12.1646C14.5134 12.3628 14.4683 12.5817 14.4778 12.8016C14.4873 13.0216 14.5512 13.2357 14.6637 13.4249L15.2281 14.3522C15.2717 14.4228 15.2543 14.4875 15.2281 14.5181C15.0089 14.7715 14.7717 15.0087 14.5183 15.2279C14.4877 15.2541 14.4237 15.2715 14.3524 15.2279L13.4251 14.6635C13.2358 14.5511 13.0217 14.4874 12.8017 14.478C12.5818 14.4686 12.3629 14.5138 12.1648 14.6097C12.0222 14.6766 11.8766 14.7368 11.7284 14.7901C11.5206 14.8626 11.3341 14.9854 11.1853 15.1476C11.0366 15.3098 10.9303 15.5063 10.876 15.7195L10.6193 16.7741C10.6004 16.8548 10.5422 16.8883 10.5022 16.8912C10.1681 16.9151 9.83264 16.9151 9.49852 16.8912C9.45852 16.8883 9.40034 16.8548 9.3807 16.7748L9.12542 15.7203C9.07102 15.5069 8.96464 15.3104 8.81578 15.1482C8.66692 14.986 8.4802 14.8632 8.27231 14.7908C8.12409 14.737 7.97848 14.6764 7.83594 14.609C7.63761 14.5131 7.4186 14.4679 7.19852 14.4774C6.97843 14.4869 6.76414 14.5509 6.57483 14.6635L5.64827 15.2279C5.57772 15.2715 5.51299 15.2541 5.48244 15.2279C5.22904 15.0087 4.99181 14.7715 4.77261 14.5181C4.74643 14.4875 4.72898 14.4235 4.77261 14.3522L5.33699 13.4249C5.44938 13.2357 5.51313 13.0215 5.52252 12.8015C5.53191 12.5816 5.48666 12.3627 5.39081 12.1646C5.32367 12.022 5.26324 11.8764 5.20971 11.7282C5.13724 11.5205 5.0145 11.334 4.85246 11.1853C4.69041 11.0366 4.49408 10.9302 4.28097 10.8758L3.2264 10.6191C3.14567 10.6002 3.11222 10.542 3.10931 10.502C3.08535 10.1679 3.08535 9.83245 3.10931 9.49832C3.11222 9.45832 3.14567 9.40014 3.22568 9.3805L4.28024 9.12523C4.49356 9.07083 4.69009 8.96445 4.85228 8.81559C5.01447 8.66672 5.13727 8.48001 5.20971 8.27212C5.26324 8.12392 5.32367 7.9783 5.39081 7.83575C5.48678 7.63747 5.53211 7.4185 5.52271 7.19841C5.51332 6.97833 5.44951 6.76401 5.33699 6.57463L4.77261 5.64807C4.72898 5.57752 4.74643 5.51279 4.77261 5.48225C4.99225 5.22915 5.22935 4.99206 5.48244 4.77242C5.51299 4.74623 5.57699 4.72878 5.64827 4.77242L6.57483 5.33679C6.76421 5.44931 6.97853 5.51312 7.19861 5.52252C7.41869 5.53191 7.63767 5.48659 7.83594 5.39061C7.9785 5.32348 8.12411 5.26305 8.27231 5.20952C8.47998 5.13704 8.66649 5.01431 8.81522 4.85226C8.96394 4.69021 9.07026 4.49388 9.12469 4.28077L9.38143 3.22621C9.40034 3.14548 9.45852 3.11202 9.49852 3.10911Z" fill="#060D38"/>
</svg>
