<svg width="20" height="20" viewBox="0 0 20 20" fill="none" xmlns="http://www.w3.org/2000/svg">
<path fill-rule="evenodd" clip-rule="evenodd" d="M12.9097 10.0001C12.9097 10.7717 12.6032 11.5117 12.0576 12.0572C11.512 12.6028 10.7721 12.9093 10.0005 12.9093C9.22898 12.9093 8.48903 12.6028 7.94346 12.0572C7.39789 11.5117 7.09139 10.7717 7.09139 10.0001C7.09139 9.2286 7.39789 8.48864 7.94346 7.94307C8.48903 7.3975 9.22898 7.091 10.0005 7.091C10.7721 7.091 11.512 7.3975 12.0576 7.94307C12.6032 8.48864 12.9097 9.2286 12.9097 10.0001ZM11.8187 10.0001C11.8187 10.4824 11.6272 10.9448 11.2862 11.2858C10.9452 11.6268 10.4828 11.8184 10.0005 11.8184C9.51831 11.8184 9.05584 11.6268 8.71486 11.2858C8.37388 10.9448 8.18232 10.4824 8.18232 10.0001C8.18232 9.51793 8.37388 9.05546 8.71486 8.71448C9.05584 8.3735 9.51831 8.18193 10.0005 8.18193C10.4828 8.18193 10.9452 8.3735 11.2862 8.71448C11.6272 9.05546 11.8187 9.51793 11.8187 10.0001Z" fill="white"/>
<path fill-rule="evenodd" clip-rule="evenodd" d="M10.0005 2C9.80562 2 9.61216 2.00727 9.42088 2.02037C8.86596 2.06037 8.44268 2.4691 8.32123 2.96875L8.06522 4.02331C8.05068 4.08004 7.99977 4.14841 7.90158 4.18332C7.72176 4.24849 7.54508 4.32203 7.37212 4.40368C7.27757 4.44732 7.1932 4.43568 7.14302 4.40514L6.21646 3.84076C5.77718 3.57312 5.18953 3.5833 4.76916 3.94767C4.47606 4.20077 4.20188 4.47568 3.94805 4.76805C3.58441 5.18915 3.5735 5.7768 3.84114 6.21535L4.40552 7.14264C4.43606 7.19283 4.44843 7.27719 4.40406 7.37174C4.32261 7.54411 4.24915 7.72084 4.18442 7.9012C4.14806 7.99939 4.08042 8.05102 4.02369 8.06484L2.96913 8.32085C2.46948 8.4423 2.06075 8.86559 2.02074 9.4205C1.99309 9.80644 1.99309 10.1939 2.02074 10.5798C2.06075 11.1347 2.46948 11.558 2.96913 11.6795L4.02369 11.9355C4.08042 11.95 4.14878 12.0009 4.18369 12.0991C4.24915 12.2795 4.32261 12.4562 4.40406 12.6293C4.4477 12.7231 4.43606 12.8075 4.40552 12.8577L3.84114 13.7842C3.5735 14.2235 3.58368 14.8112 3.94805 15.2315C4.20115 15.5246 4.47606 15.7988 4.76843 16.0526C5.18953 16.4163 5.77718 16.4272 6.21573 16.1595L7.14302 15.5952C7.1932 15.5646 7.27757 15.5523 7.37212 15.5966C7.54448 15.6781 7.72121 15.7515 7.90158 15.8163C7.99977 15.8526 8.0514 15.9203 8.06522 15.977L8.32123 17.0316C8.44268 17.5312 8.86596 17.9399 9.42088 17.9792C9.80682 18.0069 10.1942 18.0069 10.5802 17.9792C11.1351 17.9399 11.5584 17.5312 11.6798 17.0316L11.9358 15.977C11.9504 15.9203 12.0013 15.8519 12.0995 15.817C12.2798 15.7515 12.4566 15.6781 12.6297 15.5966C12.7235 15.553 12.8079 15.5646 12.858 15.5952L13.7846 16.1595C14.2239 16.4272 14.8115 16.417 15.2319 16.0526C15.525 15.7995 15.7992 15.5246 16.053 15.2322C16.4167 14.8112 16.4276 14.2235 16.1599 13.785L15.5955 12.8577C15.565 12.8075 15.5526 12.7231 15.597 12.6286C15.6785 12.4562 15.7519 12.2795 15.8166 12.0991C15.853 12.0009 15.9206 11.9493 15.9774 11.9355L17.0319 11.6795C17.5316 11.558 17.9403 11.1347 17.9796 10.5798C18.0073 10.1939 18.0073 9.80644 17.9796 9.4205C17.9403 8.86559 17.5316 8.4423 17.0319 8.32085L15.9774 8.06484C15.9206 8.0503 15.8523 7.99939 15.8174 7.9012C15.7522 7.72139 15.6786 7.54471 15.597 7.37174C15.5534 7.27719 15.565 7.19283 15.5955 7.14264L16.1599 6.21608C16.4276 5.7768 16.4174 5.18915 16.053 4.76878C15.7999 4.47568 15.525 4.2015 15.2326 3.94767C14.8115 3.58403 14.2239 3.57312 13.7853 3.84076L12.858 4.40514C12.8079 4.43568 12.7235 4.44805 12.6289 4.40368C12.456 4.32229 12.2793 4.249 12.0995 4.18404C12.0013 4.14768 11.9497 4.08004 11.9358 4.02331L11.6798 2.96875C11.5584 2.4691 11.1351 2.06037 10.5802 2.02037C10.3873 2.00667 10.1939 1.99987 10.0005 2ZM9.4987 3.10911C9.83283 3.08516 10.1682 3.08516 10.5024 3.10911C10.5424 3.11202 10.6005 3.14548 10.6202 3.22548L10.8755 4.28004C10.9867 4.73678 11.3307 5.06551 11.7286 5.20952C11.8777 5.26334 12.0231 5.3237 12.1649 5.39061C12.3631 5.48646 12.582 5.53171 12.8019 5.52232C13.0218 5.51293 13.236 5.44919 13.4253 5.33679L14.3526 4.77242C14.4232 4.72878 14.4879 4.74623 14.5184 4.77242C14.7715 4.99206 15.0086 5.22915 15.2283 5.48225C15.2544 5.51279 15.2719 5.5768 15.2283 5.64807L14.6639 6.57463C14.5514 6.76401 14.4876 6.97833 14.4782 7.19841C14.4688 7.4185 14.5141 7.63747 14.6101 7.83575C14.677 7.97757 14.7373 8.12303 14.7904 8.27212C14.9344 8.66994 15.2646 9.01395 15.7199 9.1245L16.7745 9.38123C16.8552 9.40014 16.8887 9.45832 16.8916 9.49832C16.9155 9.83245 16.9155 10.1679 16.8916 10.502C16.8887 10.542 16.8552 10.6002 16.7752 10.6198L15.7206 10.8751C15.5073 10.9295 15.3108 11.0359 15.1486 11.1847C14.9864 11.3336 14.8636 11.5203 14.7912 11.7282C14.7374 11.8764 14.6767 12.022 14.6093 12.1646C14.5136 12.3628 14.4685 12.5817 14.478 12.8016C14.4875 13.0216 14.5514 13.2357 14.6639 13.4249L15.2283 14.3522C15.2719 14.4228 15.2544 14.4875 15.2283 14.5181C15.0091 14.7715 14.7718 15.0087 14.5184 15.2279C14.4879 15.2541 14.4239 15.2715 14.3526 15.2279L13.4253 14.6635C13.236 14.5511 13.0218 14.4874 12.8019 14.478C12.582 14.4686 12.3631 14.5138 12.1649 14.6097C12.0224 14.6766 11.8768 14.7368 11.7286 14.7901C11.5208 14.8626 11.3342 14.9854 11.1855 15.1476C11.0368 15.3098 10.9305 15.5063 10.8762 15.7195L10.6195 16.7741C10.6005 16.8548 10.5424 16.8883 10.5024 16.8912C10.1682 16.9151 9.83283 16.9151 9.4987 16.8912C9.4587 16.8883 9.40052 16.8548 9.38088 16.7748L9.1256 15.7203C9.07121 15.5069 8.96483 15.3104 8.81596 15.1482C8.6671 14.986 8.48039 14.8632 8.2725 14.7908C8.12428 14.737 7.97866 14.6764 7.83613 14.609C7.63779 14.5131 7.41878 14.4679 7.1987 14.4774C6.97862 14.4869 6.76433 14.5509 6.57501 14.6635L5.64845 15.2279C5.5779 15.2715 5.51317 15.2541 5.48263 15.2279C5.22922 15.0087 4.99199 14.7715 4.7728 14.5181C4.74661 14.4875 4.72916 14.4235 4.7728 14.3522L5.33717 13.4249C5.44957 13.2357 5.51331 13.0215 5.5227 12.8015C5.53209 12.5816 5.48684 12.3627 5.39099 12.1646C5.32385 12.022 5.26342 11.8764 5.2099 11.7282C5.13742 11.5205 5.01469 11.334 4.85264 11.1853C4.69059 11.0366 4.49426 10.9302 4.28115 10.8758L3.22659 10.6191C3.14586 10.6002 3.1124 10.542 3.10949 10.502C3.08554 10.1679 3.08554 9.83245 3.10949 9.49832C3.1124 9.45832 3.14586 9.40014 3.22586 9.3805L4.28042 9.12523C4.49375 9.07083 4.69028 8.96445 4.85247 8.81558C5.01466 8.66672 5.13745 8.48001 5.2099 8.27212C5.26343 8.12392 5.32386 7.9783 5.39099 7.83575C5.48697 7.63747 5.53229 7.4185 5.5229 7.19841C5.5135 6.97833 5.44969 6.76401 5.33717 6.57463L4.7728 5.64807C4.72916 5.57752 4.74661 5.51279 4.7728 5.48225C4.99244 5.22915 5.22953 4.99206 5.48263 4.77242C5.51317 4.74623 5.57717 4.72878 5.64845 4.77242L6.57501 5.33679C6.76439 5.44931 6.97871 5.51313 7.19879 5.52252C7.41887 5.53191 7.63785 5.48659 7.83613 5.39061C7.97868 5.32348 8.1243 5.26305 8.2725 5.20952C8.48017 5.13704 8.66668 5.01431 8.8154 4.85226C8.96413 4.69021 9.07044 4.49388 9.12488 4.28077L9.38161 3.22621C9.40052 3.14548 9.4587 3.11202 9.4987 3.10911Z" fill="white"/>
</svg>
