<svg width="16" height="18" viewBox="0 0 16 18" fill="none" xmlns="http://www.w3.org/2000/svg">
<path fill-rule="evenodd" clip-rule="evenodd" d="M5.23326 10.4951C5.23317 10.2471 5.27203 10.0004 5.34861 9.76282H10.653C10.7674 10.116 10.7983 10.4878 10.7437 10.8531C10.689 11.2183 10.5501 11.5684 10.3364 11.8793C10.1227 12.1903 9.83918 12.455 9.50518 12.6553C9.17118 12.8555 8.79453 12.9867 8.4009 13.0399C8.00726 13.0931 7.60589 13.067 7.2241 12.9635C6.84232 12.8599 6.48909 12.6813 6.18849 12.4398C5.88788 12.1983 5.64696 11.8996 5.48212 11.564C5.31728 11.2284 5.2324 10.8639 5.23326 10.4951ZM6.83389 5.65302C6.56212 5.42893 6.34722 5.26635 6.3014 4.80059H6.27138C6.20381 4.80083 6.13735 4.78467 6.07861 4.75372C5.98159 4.69793 5.90716 4.61401 5.86688 4.51498C5.76891 4.30554 5.69149 3.75776 5.93798 3.59958L5.89216 3.57175V3.51024C5.88268 3.40039 5.8811 3.2671 5.87794 3.1265C5.87794 2.61094 5.8574 1.98554 5.40391 1.85958L5.2143 1.80539L5.34071 1.65892C5.67234 1.27077 6.04851 0.91718 6.46257 0.604374C6.83462 0.30973 7.28169 0.108069 7.76141 0.0185145C7.98517 -0.0149523 8.2141 -0.00294596 8.43236 0.0537023C8.65063 0.110351 8.853 0.210288 9.02548 0.346596C9.14938 0.440701 9.26267 0.546207 9.36362 0.661495C9.56429 0.681642 9.7581 0.740854 9.93237 0.835252C10.1066 0.92965 10.2574 1.05711 10.3749 1.20927C10.5239 1.39462 10.6353 1.60356 10.7035 1.82589C10.7748 2.05208 10.8047 2.28772 10.792 2.52306C10.7816 2.95111 10.595 3.35927 10.2706 3.66402C10.3256 3.66603 10.3795 3.67902 10.4286 3.7021C10.6151 3.79438 10.6214 3.99503 10.5724 4.16493C10.5234 4.3114 10.4618 4.46958 10.4033 4.60433C10.3322 4.79034 10.2295 4.82549 10.0304 4.80499C10.0194 5.26342 9.79182 5.39084 9.48371 5.65887C9.49635 6.34872 6.81967 6.26817 6.83547 5.65887L6.83389 5.65302ZM6.69484 6.2213L7.49279 8.16049L7.90045 7.10302L7.70452 6.90529C7.55599 6.70463 7.60656 6.47761 7.88149 6.4366C7.97985 6.42995 8.07861 6.42995 8.17697 6.4366C8.2856 6.42945 8.39476 6.43338 8.50247 6.44832C8.75686 6.49958 8.78372 6.72807 8.66048 6.90968L8.46297 7.10741L8.84851 8.16049L9.56903 6.2213C10.0889 6.66069 11.6231 6.74271 12.1999 7.03857C12.9899 7.45014 12.971 8.24544 13.1479 8.98216H3.1191C3.29133 8.24984 3.27711 7.44428 4.06715 7.03857C4.77187 6.67534 6.12127 6.70317 6.698 6.2213H6.69484ZM1.81868 5.71453C1.6828 5.51534 1.43156 5.24584 1.43156 5.01297C1.43461 4.93735 1.46217 4.86435 1.51065 4.80347C1.55913 4.74259 1.62628 4.69667 1.70334 4.6717C1.6907 4.47544 1.68122 4.27625 1.68122 4.07852C1.68122 3.96135 1.68122 3.84271 1.68122 3.727C1.69349 3.65577 1.71253 3.58569 1.7381 3.51756C1.83631 3.22028 2.05109 2.96789 2.34011 2.81013C2.44239 2.75023 2.55157 2.7011 2.66561 2.66367C2.87261 2.59337 2.77306 2.27114 2.99901 2.26675C3.52834 2.25357 4.39897 2.70614 4.73711 3.04448C4.95355 3.26619 5.07691 3.55258 5.08473 3.8515L5.05629 4.71125C5.1064 4.72076 5.1531 4.74186 5.19205 4.77259C5.231 4.80332 5.26094 4.84268 5.27908 4.88701C5.35177 5.15943 5.04839 5.4963 4.90618 5.71307C4.84772 5.80241 4.71499 5.98256 4.59016 6.15246C4.30111 6.21204 4.02095 6.30401 3.75588 6.42635L3.71321 6.44686C2.76516 6.93312 2.62453 7.68888 2.4839 8.45489C2.46336 8.56767 2.44282 8.68044 2.4128 8.80787C2.39687 8.86478 2.3889 8.92336 2.3891 8.98216H0C0 7.02246 1.61485 7.64494 2.38594 6.66069C2.42386 6.60943 2.44124 6.5816 2.44124 6.55817C2.44124 6.53473 1.86925 5.79509 1.81868 5.71453ZM14.1845 5.71453C14.3188 5.51534 14.5716 5.24584 14.5716 5.01297C14.5685 4.93735 14.541 4.86435 14.4925 4.80347C14.444 4.74259 14.3769 4.69667 14.2998 4.6717C14.3125 4.47544 14.3204 4.27625 14.3204 4.07852C14.3204 3.96135 14.3204 3.84271 14.3204 3.727C14.3099 3.65611 14.2936 3.58609 14.2714 3.51756C14.1721 3.22081 13.9576 2.96875 13.6694 2.81013C13.5664 2.7505 13.4567 2.70139 13.3423 2.66367C13.1353 2.59337 13.2364 2.27114 13.0089 2.26675C12.4796 2.25357 11.6089 2.70614 11.2708 3.04448C11.0541 3.26591 10.9311 3.55258 10.9247 3.8515L10.9453 4.71125C10.8953 4.72101 10.8487 4.74221 10.8098 4.7729C10.7709 4.8036 10.7409 4.84282 10.7225 4.88701C10.6514 5.15943 10.9548 5.4963 11.0954 5.71307C11.1475 5.79216 11.2534 5.94448 11.3735 6.09681C11.7834 6.16452 12.1819 6.28222 12.5586 6.44686C13.5066 6.93751 13.6409 7.68155 13.7816 8.44757C13.8037 8.5706 13.8258 8.69509 13.859 8.8357C13.8703 8.88381 13.8762 8.93291 13.8764 8.98216H16C16 7.02246 14.3851 7.64494 13.6125 6.66069C13.5746 6.60943 13.5572 6.5816 13.5572 6.55817C13.5572 6.53473 14.1308 5.79509 14.1892 5.72039L14.1845 5.71453ZM15.9937 10.5918V11.1337C15.9916 11.3746 15.8873 11.6051 15.7034 11.7753C15.5195 11.9455 15.2707 12.0417 15.0109 12.0433H13.9996C13.8737 12.5637 13.6695 13.0651 13.3928 13.5328L14.0628 14.1568C14.2464 14.3289 14.3494 14.5613 14.3494 14.8034C14.3494 15.0455 14.2464 15.2779 14.0628 15.45L13.2427 16.2102C13.0574 16.3811 12.8066 16.4771 12.5451 16.4771C12.2837 16.4771 12.0329 16.3811 11.8475 16.2102L11.2329 15.6405C10.7164 15.9384 10.1551 16.164 9.56745 16.3098V17.0861C9.56662 17.3282 9.46247 17.5602 9.27774 17.7315C9.09302 17.9027 8.84271 17.9992 8.58147 18H7.42643C7.16519 17.9992 6.91488 17.9027 6.73016 17.7315C6.54543 17.5602 6.44128 17.3282 6.44045 17.0861V16.3201C5.84673 16.1785 5.27943 15.9549 4.75765 15.6566L4.1588 16.2102C3.97372 16.381 3.72317 16.4769 3.46198 16.4769C3.20079 16.4769 2.95024 16.381 2.76516 16.2102L1.94351 15.45C1.75988 15.2779 1.6569 15.0455 1.6569 14.8034C1.6569 14.5613 1.75988 14.3289 1.94351 14.1568L2.58977 13.5592C2.30497 13.084 2.0948 12.5735 1.96563 12.0433H0.995457C0.735033 12.0425 0.48544 11.9466 0.300848 11.7763C0.116256 11.606 0.0115593 11.3751 0.00948054 11.1337V10.0543C0.00997324 9.95457 0.0281223 9.85561 0.0632036 9.76135H4.07189C4.03183 9.97416 4.01174 10.1898 4.01185 10.4058C4.01185 10.4702 4.01185 10.5332 4.01185 10.5962C4.01185 10.6592 4.01185 10.7236 4.01185 10.7866C4.01185 11.762 4.42986 12.6974 5.17394 13.3872C5.91801 14.0769 6.92718 14.4643 7.97946 14.4643C9.03173 14.4643 10.0409 14.0769 10.785 13.3872C11.5291 12.6974 11.9471 11.762 11.9471 10.7866C11.9471 10.7236 11.9471 10.6592 11.9471 10.5962C11.9471 10.5332 11.9471 10.4702 11.9471 10.4058C11.9472 10.1898 11.9271 9.97416 11.887 9.76135H15.9384C15.9746 9.85538 15.9933 9.95444 15.9937 10.0543V10.5918Z" fill="white"/>
</svg>
